<?xml version="1.0" standalone="no"?><svg xmlns="http://www.w3.org/2000/svg" viewBox="0 0 1440 320"><path fill="#0099ff" fill-opacity="1" d="M0,64L24,90.7C48,117,96,171,144,165.3C192,160,240,96,288,85.3C336,75,384,117,432,149.3C480,181,528,203,576,213.3C624,224,672,224,720,213.3C768,203,816,181,864,170.7C912,160,960,160,1008,149.3C1056,139,1104,117,1152,138.7C1200,160,1248,224,1296,240C1344,256,1392,224,1416,208L1440,192L1440,320L1416,320C1392,320,1344,320,1296,320C1248,320,1200,320,1152,320C1104,320,1056,320,1008,320C960,320,912,320,864,320C816,320,768,320,720,320C672,320,624,320,576,320C528,320,480,320,432,320C384,320,336,320,288,320C240,320,192,320,144,320C96,320,48,320,24,320L0,320Z"></path></svg>